<?xml version="1.0" encoding="utf-8"?>
<!-- Generator: Adobe Illustrator 21.0.2, SVG Export Plug-In . SVG Version: 6.00 Build 0)  -->
<svg version="1.1" xmlns="http://www.w3.org/2000/svg" xmlns:xlink="http://www.w3.org/1999/xlink" x="0px" y="0px"
	 viewBox="0 0 1000 1000" style="enable-background:new 0 0 1000 1000;" xml:space="preserve">
<style type="text/css">
	.st0{fill:url(#SVGID_1_);}
	.st1{fill:#FFFFFF;}
	.st2{opacity:0.5;}
	.st3{fill:#237094;}
</style>
<g id="Background">
	<g>
		<linearGradient id="SVGID_1_" gradientUnits="userSpaceOnUse" x1="-3.367131e-08" y1="1000" x2="1000" y2="3.367393e-08">
			<stop  offset="0" style="stop-color:#CCE0F4"/>
			<stop  offset="6.405089e-02" style="stop-color:#C3DCF2;stop-opacity:0.9436"/>
			<stop  offset="0.1706" style="stop-color:#A9D2EE;stop-opacity:0.8496"/>
			<stop  offset="0.3066" style="stop-color:#80C2E7;stop-opacity:0.7299"/>
			<stop  offset="0.4649" style="stop-color:#47ACDE;stop-opacity:0.5904"/>
			<stop  offset="0.5674" style="stop-color:#1E9CD7;stop-opacity:0.5"/>
			<stop  offset="0.8652" style="stop-color:#0075BE;stop-opacity:0.5"/>
			<stop  offset="0.9944" style="stop-color:#005B97;stop-opacity:0.5"/>
		</linearGradient>
		<rect class="st0" width="1000" height="1000"/>
		<path class="st1" d="M1000.5,1000.5H-0.5V-0.5h1001V1000.5z M0.5,999.5h999V0.5H0.5V999.5z"/>
	</g>
</g>
<g id="Outline">
	<g class="st2">
		<g>
			<g>
				<path class="st1" d="M388.2,533.2c-1.9,0-3.6-1.1-4.5-2.8l-10.3-21c-2.4-4.9-5.7-8-14.6-8h-11.6v26.7c0,2.8-2.2,5-5,5h-11.8
					c-2.8,0-5-2.2-5-5v-79.4c0-2.8,2.2-5,5-5h36c19.7,0,32.9,11.6,32.9,28.9c0,8.3-4.1,15.9-10.7,20.8c1.8,1.9,3.4,4.2,4.6,6.7
					l12.7,25.8c0.8,1.5,0.7,3.4-0.2,4.8c-0.9,1.5-2.5,2.4-4.2,2.4H388.2z M365.4,480.6c2.8,0,11.8-0.6,11.8-7.8c0-2.8,0-8-10.9-8
					h-19.2v15.9H365.4z"/>
			</g>
			<g>
				<path class="st1" d="M404.8,533.2c-2.8,0-5-2.2-5-5v-79.4c0-2.8,2.2-5,5-5h37.7c20.9,0,30.3,13.5,30.3,26.9c0,6-1.6,11-5,15
					c5.4,4.4,8.4,11.3,8.4,19.4c0,17.3-12.7,28-33,28H404.8z M443.2,512.3c10.9,0,10.9-3.8,10.9-7.1c0-2.6,0-7.4-10.9-7.4h-21.6
					v14.5H443.2z M441.5,477c9.2,0,9.2-4.1,9.2-6.3c0-2.8-0.9-3.7-1.2-4c-1.3-1.3-4.1-2-8-2h-19.9V477H441.5z"/>
			</g>
			<g>
				<path class="st1" d="M510.2,534.2c-16,0-29.9-5.3-39.2-15.1c-1.9-2-1.8-5.1,0.1-7.1l8.7-8.4c1-0.9,2.2-1.4,3.5-1.4
					c1.2,0,2.4,0.4,3.3,1.3c8,7.1,14.5,9.8,23.2,9.8c11.1,0,16.2-3.4,16.2-6.6c0-2-2.8-4.9-10.8-6.9c0,0-0.1,0-0.1,0
					c-1.2-0.4-8.3-2.2-14.5-3.8c-9.4-2.6-28.7-7.8-28.7-26.1c0-13.5,11.5-27,37.3-27c14.2,0,26.5,4.9,35.4,14.3c1.9,2,1.8,5.1-0.1,7
					l-8.6,8.5c-0.9,0.9-2.2,1.4-3.5,1.4c-0.1,0-0.1,0-0.2,0c-1.4-0.1-2.7-0.7-3.6-1.8c-4.9-5.8-11.3-8.6-19.3-8.6
					c-11.2,0-15.3,3.5-15.3,5.8c0,1.2,2.5,3.3,14.6,6.5c1.1,0.3,4.1,1.1,8.3,2.2c2,0.6,3.9,1,4.6,1.2c23.2,5.8,26.7,19.2,26.7,26.7
					C548,519.1,538.1,534.2,510.2,534.2z"/>
			</g>
			<g>
				<path class="st1" d="M615.4,534.3c-1.8,0-3.5-1-4.4-2.6l-18.8-35.1v31.6c0,2.8-2.2,5-5,5h-11.8c-2.8,0-5-2.2-5-5v-79.3
					c0-2.8,2.2-5,5-5h10.1c1.8,0,3.5,1,4.4,2.7l25.8,48.5l25.8-48.5c0.9-1.6,2.6-2.7,4.4-2.7h9.9c2.8,0,5,2.2,5,5v79.4
					c0,2.8-2.2,5-5,5H644c-2.8,0-5-2.2-5-5v-31.7l-18.9,35.2c-0.9,1.6-2.6,2.6-4.4,2.6H615.4z"/>
			</g>
			<g>
				<path class="st1" d="M690.6,534.3c-19.4,0-31.5-9.4-31.5-24.5c0-24.6,31-25.5,44.4-25.5c-1.1-1.8-3.7-3.4-9.8-3.4
					c-4.5,0-10.8,0.8-15.5,4.7c-0.9,0.8-2.1,1.2-3.2,1.2c-1.3,0-2.6-0.5-3.6-1.5l-7.6-7.7c-1-1-1.5-2.4-1.4-3.8
					c0.1-1.4,0.8-2.7,1.9-3.6c8.4-6.5,17.5-9.5,29.3-9.5c20.2,0,32.2,10.4,32.2,27.8l0.1,39.8c0,1.3-0.5,2.6-1.5,3.5
					s-2.2,1.5-3.5,1.5h-11.5c-1.5,0-2.9-0.7-3.8-1.8C701.3,533.3,696.2,534.3,690.6,534.3z M704.5,504.2c-2.6,0-5.6,0-8.6,0.2
					c-3.2,0.2-6.5,0.6-9.6,1.4c-5.7,1.4-5.7,3.4-5.7,4c0,4.2,10,4.2,10.1,4.2c7.4,0,13.9-2,13.9-4.2V504.2z"/>
			</g>
			<g>
				<path class="st1" d="M732,533.2c-2.8,0-5-2.2-5-5v-61.7c0-2.8,2.2-5,5-5h11.5c2.1,0,4,1.3,4.7,3.2c4.2-2.5,9.2-3.9,14.5-3.9h2.6
					c2.8,0,5,2.2,5,5v11.7c0,2.8-2.2,5-5,5l-3.9,0c-8.7,0-13,5-13,15.3v30.5c0,2.8-2.2,5-5,5H732z"/>
			</g>
			<g>
				<path class="st1" d="M773.4,533.2c-2.8,0-5-2.2-5-5v-61.7c0-2,1.2-3.7,2.9-4.5c-2.5-2.2-4-5.5-4-9.4c0-7.1,5-12.2,11.9-12.2
					c6.9,0,11.9,5.2,11.9,12.2c0,3.9-1.5,7.2-4,9.4c0.5,0.2,1,0.6,1.4,1c0.9,0.9,1.5,2.2,1.5,3.5l0,61.7c0,2.8-2.2,5-5,5H773.4z"/>
			</g>
			<g>
				<path class="st1" d="M796.7,533.3c-2.8,0-5-2.2-5-5v-61.8c0-2.8,2.2-5,5-5h11.5c1.8,0,3.4,1,4.3,2.5c4.4-2.2,9.6-3.5,14.8-3.5
					c19.2,0,31.1,11,31.1,28.7l-0.1,39c0,2.8-2.2,5-5,5h-11.5c-2.8,0-5-2.2-5-5V491c0-6.9-1.1-10.2-11-10.2c-3.8,0-12.7,1.1-12.7,11
					v36.4c0,2.8-2.2,5-5,5H796.7z"/>
			</g>
			<g>
				<path class="st1" d="M892.3,534.2c-22.2,0-36.1-13.9-36.1-36.4c0-22.3,14.3-37.3,35.6-37.3c21.7,0,35.2,14.3,35.2,37.3
					c0,1.7-0.1,3.5-0.4,5.2c-0.3,2.5-2.4,4.3-5,4.3h-10.9c0.7,0.2,1.3,0.6,1.8,1.2l7.8,7.8c1,1,1.5,2.3,1.5,3.6
					c0,1.4-0.6,2.7-1.6,3.6C912.6,530.6,903.2,534.2,892.3,534.2z M879.6,507.3c2.2,4.5,6.4,6.7,12.7,6.7c5,0,9.3-1.8,13.3-5.6
					c0.5-0.5,1.1-0.8,1.7-1.1H879.6z M903.6,487.4c-2.2-4.5-6.1-6.7-11.8-6.7c-5.8,0-9.6,2.1-11.9,6.7H903.6z"/>
			</g>
			<g>
				<path class="st1" d="M191.7,442.2c-2.3,0-4.3-1.6-4.8-3.9c-0.6-2.7,1.1-5.4,3.7-6c0,0,0.2,0,0.2,0c0.3-0.1,0.7-0.1,1-0.1
					c2.3,0,4.4,1.6,4.9,3.9c0.6,2.6-1,5.2-3.6,5.9c-0.1,0-0.2,0.1-0.3,0.1C192.5,442.2,192.1,442.2,191.7,442.2z"/>
			</g>
			<g>
				<path class="st1" d="M92.9,499.5c-1.4,0-2.8-0.6-3.7-1.7c-1.6-1.8-1.7-4.5-0.2-6.4c3-3.8,6.3-7.5,9.8-10.8l-4.3-8.8
					c-0.7-1.5-0.7-3.2,0.1-4.6c0.8-1.4,2.2-2.4,3.8-2.6l21.7-2.6c0.2,0,0.4,0,0.6,0c0.7,0,1.3,0.1,1.9,0.4
					c20.1-12.9,44.8-23.9,68.1-30c2-0.5,4-0.8,6.1-0.8c7.5,0,13.7,3.5,19.8,6.9c2.6,1.5,5.3,3,8.1,4.1c2.1,0.9,3.4,3.1,3,5.4
					c-0.4,2.3-2.2,4-4.5,4.2c-53.2,4.2-93.7,26.3-127.4,46.6C94.7,499.3,93.8,499.5,92.9,499.5z"/>
			</g>
			<g>
				<path class="st1" d="M64.2,532.3c-3.4,0-5.2-1.7-6-2.7c-1.1-1.4-1.5-3.2-1.2-5.1c0.7-4.2,5-8.4,16.5-16l0.2-0.1
					c56-37.1,141.4-59.9,234.3-62.7c0,0,0.3,0,0.3,0c1.6,0,3,0.7,4,2c0.8,1,1.2,2.3,1.3,3.5c0,0,0,0.1,0,0.1c0.1,4-3.3,7.1-6.4,9.8
					l-0.7,0.6c-4.5,4.1-11,11.6-16.6,18.2c-3.9,4.5-7.6,8.8-10.5,11.9c-0.9,1-2.3,1.5-3.6,1.5c-0.2,0-0.3,0-0.5,0
					c-10.7-1-21.9-1.6-33.2-1.6c-54,0-111.2,11.9-157,32.5c-0.5,0.2-1.4,0.7-2.5,1.2C75.6,529.1,68.9,532.3,64.2,532.3z"/>
			</g>
			<g>
				<path class="st1" d="M195.9,534c-2.8,0-5-2.2-5-5c0-3.8,2.5-4.6,8.6-6.6c2.6-0.8,5.2-1.6,5.2-1.6l7.8-2.4l9.5-3.4l11.7-4.6
					l10.1-4.1l6.5-3l12.3-5.9l10.7-5.4c0.7-0.4,1.5-0.5,2.3-0.5c1.5,0,3,0.7,4,2l3.8,5.1c0,0.1,0.1,0.1,0.1,0.2l5.6,8l4.9,7.2
					l6.9,9.7c0.3,0.4,0.5,0.8,0.6,1.2l1,2.7c0.5,1.5,0.3,3.2-0.6,4.6c-0.9,1.3-2.5,2.1-4.1,2.1C297.8,534.3,195.9,534,195.9,534z"/>
			</g>
		</g>
	</g>
</g>
<g id="Logo">
	<g>
		<g>
			<path class="st3" d="M401.3,528.2h-13.1l-10.3-21c-3.6-7.3-9.1-10.8-19.1-10.8h-17.8l1.2,1.1v30.7h-11.8v-79.4h36
				c15,0,27.9,7.8,27.9,23.9c0,9.7-6.9,17.2-14.9,20v0.2c3.2,1.4,7,4.7,9.3,9.5L401.3,528.2z M366.3,459.7h-25.4l1.2,1.2v23.4
				l-1.2,1.3h24.4c10.9,0,16.8-5.5,16.8-12.8C382.2,463.4,375.7,459.7,366.3,459.7z"/>
		</g>
		<g>
			<path class="st3" d="M443.2,528.2h-38.4v-79.4h37.7c17,0,25.3,10.3,25.3,21.9c0,7-2.5,12-8.3,15.7v0.2
				c7.6,2.8,11.8,9.8,11.8,18.5C471.2,519.4,461.3,528.2,443.2,528.2z M441.5,459.7h-26.1l1.2,1.2v19.9l-1.2,1.2h26.1
				c10.7,0,14.2-5,14.2-11.3C455.7,463.4,451.2,459.7,441.5,459.7L441.5,459.7z M443.2,492.8h-27.8l1.2,1.2v22.1l-1.2,1.2h27.8
				c11.8,0,15.9-4.4,15.9-12.1C459.1,497.6,454.5,492.8,443.2,492.8L443.2,492.8z"/>
		</g>
		<g>
			<path class="st3" d="M510.2,529.2c-13,0-26.5-4-35.6-13.5l8.7-8.4c9.1,8,16.7,11.1,26.5,11.1c14.6,0,21.2-5.4,21.2-11.6
				c0-4.4-3.8-9-14.5-11.8c-1.7-0.5-12.8-3.4-14.6-3.8c-14.4-3.9-25-9.1-25-21.3c0-11.6,10.4-22,32.3-22c12.9,0,23.9,4.5,31.7,12.7
				l-8.6,8.5c-5.6-6.6-13-10.4-23.1-10.4c-14.7,0-20.3,5.5-20.3,10.8c0,4.9,4.9,7.7,18.3,11.4c1.7,0.4,10.9,2.9,12.8,3.4
				c16,4,22.9,12.1,22.9,21.9C543,517.8,533.8,529.2,510.2,529.2z"/>
		</g>
		<g>
			<polygon class="st3" points="655.8,528.2 644,528.2 644,474.5 643.8,474.5 639.5,485 615.7,529.3 615.4,529.3 591.5,484.7 
				587.3,474.6 587.1,474.6 587.1,528.2 575.4,528.2 575.4,448.9 585.5,448.9 611.7,498.2 615.6,507.7 615.8,507.7 619.6,498.2 
				645.9,448.9 655.8,448.9 			"/>
		</g>
		<g>
			<path class="st3" d="M721,528.2h-11.5v-4.7h-0.2c-5.3,4.2-12.1,5.8-18.7,5.8c-12.5,0-26.5-4.7-26.5-19.5
				c0-19.3,25.2-20.5,40.8-20.5c1.6,0,4.6,0.1,5.8,0.2l-1.2-1.2c-0.1-0.2,0-1.1-0.1-1.2c-0.6-8.2-7.2-11.3-15.7-11.3
				c-6.3,0-13.3,1.4-18.7,5.9l-7.6-7.7c8.3-6.5,16.7-8.4,26.3-8.4c13.4,0,27.2,5.2,27.2,22.8L721,528.2z M710.7,499.4
				c-1.1,0-3.8-0.2-5.3-0.2c-2.8,0-6.3,0-9.8,0.2c-3.5,0.2-7,0.7-10.5,1.5c-5.9,1.5-9.6,4.2-9.6,8.9c0,7.3,8.9,9.2,15.1,9.2
				c5.8,0,18.9-1.3,18.9-9.2v-9.2L710.7,499.4z"/>
		</g>
		<g>
			<path class="st3" d="M765.3,477.5h-3.6c-10.3-0.1-18.2,5.6-18.2,20.3v30.5H732v-61.7h11.5v9.9h0.2c3.5-6.7,10.9-10.6,19-10.6h2.6
				V477.5z"/>
		</g>
		<g>
			<path class="st3" d="M779.2,459.8c-4.3,0-6.9-3-6.9-7.2s2.7-7.2,6.9-7.2s6.9,3,6.9,7.2C786.1,456.8,783.4,459.8,779.2,459.8z
				 M784.9,528.2h-11.4v-61.7h11.5L784.9,528.2z"/>
		</g>
		<g>
			<path class="st3" d="M853.3,528.2h-11.5V491c0-8.9-2.6-15.2-16-15.2c-10,0-17.7,5.5-17.7,16v36.4h-11.4v-61.8h11.5v6.7h0.2
				c4.2-4.7,11.7-7.6,18.9-7.6c16.1,0,26.1,8.5,26.1,23.7L853.3,528.2z"/>
		</g>
		<g>
			<path class="st3" d="M921.7,502.3H872l1.2,1.2c1.8,9.6,7.9,15.5,19.1,15.5c6.5,0,11.9-2.3,16.8-7l7.8,7.8
				c-7,6.4-15.2,9.3-24.6,9.3c-21.3,0-31.1-13.6-31.1-31.4c0-18.7,11.2-32.3,30.6-32.3c20.5,0,30.2,13.9,30.2,32.3
				C922,499.3,921.9,500.9,921.7,502.3z M911.2,492.4l-1.2-1.2c-1.8-9.4-7.6-15.5-18.2-15.5c-10.9,0-16.5,6.4-18.4,15.5l-1.3,1.2
				H911.2z"/>
		</g>
		<path class="st3" d="M191.8,437.2C191.8,437.2,191.8,437.2,191.8,437.2C191.8,437.2,191.9,437.2,191.8,437.2L191.8,437.2z"/>
		<path class="st3" d="M92.9,494.5c35.4-21.3,76.1-43,129.6-47.3c-10.6-4.5-19.2-13-30.6-10c-29,7.6-63.3,24.2-85.4,43.2l-4.3-9.1
			l13.9-2.4l4.6-1.9l-21.7,2.6l6,12.1c-0.5,0.4-0.9,0.8-1.4,1.3C99.6,486.5,96.1,490.4,92.9,494.5z"/>
		<path class="st3" d="M308.4,450.6h-0.2c-89.1,2.7-175.1,24.4-231.7,61.9c-4.4,2.9-16.6,11-14.3,14.1c2.5,3.3,17.3-5.2,20.9-6.9
			c51.8-23.4,124.8-38,192.7-31.4c7.3-7.6,19.6-23.3,27.5-30.4c2-1.8,5.5-4.7,5.5-6.6v0C308.6,451.1,308.5,450.8,308.4,450.6z"/>
		<path class="st3" d="M289.9,516.8l-4.9-7.2l-5.6-8l-3.8-5.1l-10.7,5.5l-12.4,6l-6.6,3l-10.3,4.2l-11.8,4.6l-9.7,3.4l-7.9,2.4
			c0,0-10.3,3.1-10.3,3.4l101.9,0.3l-1-2.7L289.9,516.8z"/>
	</g>
</g>
</svg>
